{
	"asset":{
		"generator":"Khronos glTF Blender I/O v3.6.27",
		"version":"2.0"
	},
	"scene":0,
	"scenes":[
		{
			"name":"Scene",
			"nodes":[
				0
			]
		}
	],
	"nodes":[
		{
			"mesh":0,
			"name":"shoulder Bag"
		}
	],
	"materials":[
		{
			"doubleSided":true,
			"name":"metal",
			"pbrMetallicRoughness":{
				"baseColorTexture":{
					"index":0
				},
				"metallicRoughnessTexture":{
					"index":1
				}
			}
		},
		{
			"doubleSided":true,
			"name":"bag",
			"normalTexture":{
				"index":2
			},
			"pbrMetallicRoughness":{
				"baseColorTexture":{
					"index":3
				},
				"metallicRoughnessTexture":{
					"index":4
				}
			}
		}
	],
	"meshes":[
		{
			"name":"Mesh.002",
			"primitives":[
				{
					"attributes":{
						"POSITION":0,
						"NORMAL":1,
						"TEXCOORD_0":2
					},
					"indices":3,
					"material":0
				},
				{
					"attributes":{
						"POSITION":4,
						"NORMAL":5,
						"TEXCOORD_0":6
					},
					"indices":7,
					"material":1
				}
			]
		}
	],
	"textures":[
		{
			"sampler":0,
			"source":0
		},
		{
			"sampler":0,
			"source":1
		},
		{
			"sampler":0,
			"source":2
		},
		{
			"sampler":0,
			"source":3
		},
		{
			"sampler":0,
			"source":4
		}
	],
	"images":[
		{
			"mimeType":"image/jpeg",
			"name":"metala_Basecolor",
			"uri":"metala_Basecolor.jpg"
		},
		{
			"mimeType":"image/jpeg",
			"name":"mmetal_roughness",
			"uri":"mmetal_roughness.jpg"
		},
		{
			"mimeType":"image/jpeg",
			"name":"bag_Normal",
			"uri":"bag_Normal.jpg"
		},
		{
			"mimeType":"image/png",
			"name":"bag_baseColor",
			"uri":"bag_baseColor.png"
		},
		{
			"mimeType":"image/jpeg",
			"name":"Bag_Roughness",
			"uri":"Bag_Roughness.jpg"
		}
	],
	"accessors":[
		{
			"bufferView":0,
			"componentType":5126,
			"count":60576,
			"max":[
				0.053444236516952515,
				0.21028375625610352,
				0.029888296499848366
			],
			"min":[
				-0.08813361078500748,
				0.08511407673358917,
				-0.01877140998840332
			],
			"type":"VEC3"
		},
		{
			"bufferView":1,
			"componentType":5126,
			"count":60576,
			"type":"VEC3"
		},
		{
			"bufferView":2,
			"componentType":5126,
			"count":60576,
			"type":"VEC2"
		},
		{
			"bufferView":3,
			"componentType":5123,
			"count":251040,
			"type":"SCALAR"
		},
		{
			"bufferView":4,
			"componentType":5126,
			"count":11694,
			"max":[
				0.09142334014177322,
				0.262857049703598,
				0.03709155321121216
			],
			"min":[
				-0.09142334014177322,
				0.00011050526518374681,
				-0.03709150105714798
			],
			"type":"VEC3"
		},
		{
			"bufferView":5,
			"componentType":5126,
			"count":11694,
			"type":"VEC3"
		},
		{
			"bufferView":6,
			"componentType":5126,
			"count":11694,
			"type":"VEC2"
		},
		{
			"bufferView":7,
			"componentType":5123,
			"count":64554,
			"type":"SCALAR"
		}
	],
	"bufferViews":[
		{
			"buffer":0,
			"byteLength":726912,
			"byteOffset":0,
			"target":34962
		},
		{
			"buffer":0,
			"byteLength":726912,
			"byteOffset":726912,
			"target":34962
		},
		{
			"buffer":0,
			"byteLength":484608,
			"byteOffset":1453824,
			"target":34962
		},
		{
			"buffer":0,
			"byteLength":502080,
			"byteOffset":1938432,
			"target":34963
		},
		{
			"buffer":0,
			"byteLength":140328,
			"byteOffset":2440512,
			"target":34962
		},
		{
			"buffer":0,
			"byteLength":140328,
			"byteOffset":2580840,
			"target":34962
		},
		{
			"buffer":0,
			"byteLength":93552,
			"byteOffset":2721168,
			"target":34962
		},
		{
			"buffer":0,
			"byteLength":129108,
			"byteOffset":2814720,
			"target":34963
		}
	],
	"samplers":[
		{
			"magFilter":9729,
			"minFilter":9987
		}
	],
	"buffers":[
		{
			"byteLength":2943828,
			"uri":"shoulder%20bag.bin"
		}
	]
}
