{
  "accessors": [
    {
      "bufferView": 2,
      "componentType": 5126,
      "count": 65532,
      "max": [
        2.6400420665740967,
        5.0446696281433105,
        -0.07575833797454834
      ],
      "min": [
        -2.742647886276245,
        -5.397450923919678,
        -7.244982719421387
      ],
      "type": "VEC3"
    },
    {
      "bufferView": 2,
      "byteOffset": 786384,
      "componentType": 5126,
      "count": 65532,
      "max": [
        0.9999991059303284,
        0.9999993443489075,
        1.0
      ],
      "min": [
        -0.9999923706054688,
        -0.9999982714653015,
        -1.0
      ],
      "type": "VEC3"
    },
    {
      "bufferView": 1,
      "componentType": 5126,
      "count": 65532,
      "max": [
        1.0000001192092896,
        1.0000001192092896
      ],
      "min": [
        0.0,
        0.0
      ],
      "type": "VEC2"
    },
    {
      "bufferView": 0,
      "componentType": 5125,
      "count": 363456,
      "type": "SCALAR"
    },
    {
      "bufferView": 2,
      "byteOffset": 1572768,
      "componentType": 5126,
      "count": 65532,
      "max": [
        2.547600507736206,
        4.667479515075684,
        -0.07592500001192093
      ],
      "min": [
        -2.727747917175293,
        -5.397450923919678,
        -11.13607120513916
      ],
      "type": "VEC3"
    },
    {
      "bufferView": 2,
      "byteOffset": 2359152,
      "componentType": 5126,
      "count": 65532,
      "max": [
        0.9999997615814209,
        0.9999709129333496,
        1.0
      ],
      "min": [
        -0.9999971985816956,
        -0.9999982714653015,
        -0.9999958276748657
      ],
      "type": "VEC3"
    },
    {
      "bufferView": 1,
      "byteOffset": 524256,
      "componentType": 5126,
      "count": 65532,
      "max": [
        1.4057000875473022,
        1.0000001192092896
      ],
      "min": [
        0.0,
        0.0
      ],
      "type": "VEC2"
    },
    {
      "bufferView": 0,
      "byteOffset": 1453824,
      "componentType": 5125,
      "count": 287739,
      "type": "SCALAR"
    },
    {
      "bufferView": 2,
      "byteOffset": 3145536,
      "componentType": 5126,
      "count": 65532,
      "max": [
        2.8483405113220215,
        4.339397430419922,
        0.021735765039920807
      ],
      "min": [
        -3.024113893508911,
        -5.9545578956604,
        -11.123899459838867
      ],
      "type": "VEC3"
    },
    {
      "bufferView": 2,
      "byteOffset": 3931920,
      "componentType": 5126,
      "count": 65532,
      "max": [
        0.9999995231628418,
        0.9999992251396179,
        1.0
      ],
      "min": [
        -0.9999963641166687,
        -0.9999993443489075,
        -0.9999937415122986
      ],
      "type": "VEC3"
    },
    {
      "bufferView": 1,
      "byteOffset": 1048512,
      "componentType": 5126,
      "count": 65532,
      "max": [
        0.9832001328468323,
        0.9950001239776611
      ],
      "min": [
        0.0,
        0.0
      ],
      "type": "VEC2"
    },
    {
      "bufferView": 0,
      "byteOffset": 2604780,
      "componentType": 5125,
      "count": 330168,
      "type": "SCALAR"
    },
    {
      "bufferView": 2,
      "byteOffset": 4718304,
      "componentType": 5126,
      "count": 65532,
      "max": [
        2.730295181274414,
        4.469655990600586,
        -0.014024220407009125
      ],
      "min": [
        -3.0145912170410156,
        -5.735330104827881,
        -10.995491981506348
      ],
      "type": "VEC3"
    },
    {
      "bufferView": 2,
      "byteOffset": 5504688,
      "componentType": 5126,
      "count": 65532,
      "max": [
        0.999995768070221,
        0.9998751878738403,
        1.0
      ],
      "min": [
        -0.9999942183494568,
        -0.9999979734420776,
        -0.9999985098838806
      ],
      "type": "VEC3"
    },
    {
      "bufferView": 1,
      "byteOffset": 1572768,
      "componentType": 5126,
      "count": 65532,
      "max": [
        1.9806002378463745,
        0.6788501739501953
      ],
      "min": [
        0.006562761031091213,
        -26.337604522705078
      ],
      "type": "VEC2"
    },
    {
      "bufferView": 0,
      "byteOffset": 3925452,
      "componentType": 5125,
      "count": 332922,
      "type": "SCALAR"
    },
    {
      "bufferView": 2,
      "byteOffset": 6291072,
      "componentType": 5126,
      "count": 65532,
      "max": [
        0.7983512282371521,
        4.059629440307617,
        -7.213625907897949
      ],
      "min": [
        -0.826483428478241,
        -5.3030805587768555,
        -10.948530197143555
      ],
      "type": "VEC3"
    },
    {
      "bufferView": 2,
      "byteOffset": 7077456,
      "componentType": 5126,
      "count": 65532,
      "max": [
        0.9999821782112122,
        0.9999816417694092,
        0.9999498128890991
      ],
      "min": [
        -0.9999999403953552,
        -0.9999962449073792,
        -0.9999825358390808
      ],
      "type": "VEC3"
    },
    {
      "bufferView": 1,
      "byteOffset": 2097024,
      "componentType": 5126,
      "count": 65532,
      "max": [
        1.9806002378463745,
        0.9082001447677612
      ],
      "min": [
        -0.09690000116825104,
        -26.90300178527832
      ],
      "type": "VEC2"
    },
    {
      "bufferView": 0,
      "byteOffset": 5257140,
      "componentType": 5125,
      "count": 333057,
      "type": "SCALAR"
    },
    {
      "bufferView": 2,
      "byteOffset": 7863840,
      "componentType": 5126,
      "count": 65532,
      "max": [
        2.3669519424438477,
        5.535573482513428,
        -5.371275424957275
      ],
      "min": [
        -0.8625751733779907,
        -5.158100128173828,
        -10.966586112976074
      ],
      "type": "VEC3"
    },
    {
      "bufferView": 2,
      "byteOffset": 8650224,
      "componentType": 5126,
      "count": 65532,
      "max": [
        0.9999626874923706,
        0.999997615814209,
        0.9999871850013733
      ],
      "min": [
        -0.9999421834945679,
        -0.9999996423721313,
        -0.9999680519104004
      ],
      "type": "VEC3"
    },
    {
      "bufferView": 1,
      "byteOffset": 2621280,
      "componentType": 5126,
      "count": 65532,
      "max": [
        1.9806002378463745,
        0.9947999715805054
      ],
      "min": [
        -0.13379999995231628,
        -25.98020362854004
      ],
      "type": "VEC2"
    },
    {
      "bufferView": 0,
      "byteOffset": 6589368,
      "componentType": 5125,
      "count": 334572,
      "type": "SCALAR"
    },
    {
      "bufferView": 2,
      "byteOffset": 9436608,
      "componentType": 5126,
      "count": 65532,
      "max": [
        2.320603609085083,
        1.8152273893356323,
        -5.893850326538086
      ],
      "min": [
        -2.2923831939697266,
        -3.0138754844665527,
        -10.992398262023926
      ],
      "type": "VEC3"
    },
    {
      "bufferView": 2,
      "byteOffset": 10222992,
      "componentType": 5126,
      "count": 65532,
      "max": [
        0.9999788403511047,
        0.9998571872711182,
        0.999991238117218
      ],
      "min": [
        -0.9999080300331116,
        -0.999883770942688,
        -0.9999944567680359
      ],
      "type": "VEC3"
    },
    {
      "bufferView": 1,
      "byteOffset": 3145536,
      "componentType": 5126,
      "count": 65532,
      "max": [
        1.9806002378463745,
        -24.980199813842773
      ],
      "min": [
        0.9805999994277954,
        -25.98020362854004
      ],
      "type": "VEC2"
    },
    {
      "bufferView": 0,
      "byteOffset": 7927656,
      "componentType": 5125,
      "count": 332820,
      "type": "SCALAR"
    },
    {
      "bufferView": 2,
      "byteOffset": 11009376,
      "componentType": 5126,
      "count": 65532,
      "max": [
        2.3461639881134033,
        4.055386066436768,
        -5.8939008712768555
      ],
      "min": [
        -2.224177598953247,
        -5.322200298309326,
        -10.952025413513184
      ],
      "type": "VEC3"
    },
    {
      "bufferView": 2,
      "byteOffset": 11795760,
      "componentType": 5126,
      "count": 65532,
      "max": [
        0.9999986886978149,
        0.9999356865882874,
        0.9999929666519165
      ],
      "min": [
        -0.9999969601631165,
        -0.9993761777877808,
        -0.9999902844429016
      ],
      "type": "VEC3"
    },
    {
      "bufferView": 1,
      "byteOffset": 3669792,
      "componentType": 5126,
      "count": 65532,
      "max": [
        1.9806002378463745,
        0.9983999729156494
      ],
      "min": [
        -0.0940999984741211,
        -27.573802947998047
      ],
      "type": "VEC2"
    },
    {
      "bufferView": 0,
      "byteOffset": 9258936,
      "componentType": 5125,
      "count": 333435,
      "type": "SCALAR"
    },
    {
      "bufferView": 2,
      "byteOffset": 12582144,
      "componentType": 5126,
      "count": 31580,
      "max": [
        2.379889965057373,
        4.7756195068359375,
        -0.2536415755748749
      ],
      "min": [
        -2.883472204208374,
        -5.896672248840332,
        -10.942147254943848
      ],
      "type": "VEC3"
    },
    {
      "bufferView": 2,
      "byteOffset": 12961104,
      "componentType": 5126,
      "count": 31580,
      "max": [
        0.9999789595603943,
        0.9999914169311523,
        0.9999658465385437
      ],
      "min": [
        -0.9999855160713196,
        -0.9999905824661255,
        -0.9999896287918091
      ],
      "type": "VEC3"
    },
    {
      "bufferView": 1,
      "byteOffset": 4194048,
      "componentType": 5126,
      "count": 31580,
      "max": [
        1.9806002378463745,
        0.9983999729156494
      ],
      "min": [
        -0.13379999995231628,
        -27.005041122436523
      ],
      "type": "VEC2"
    },
    {
      "bufferView": 0,
      "byteOffset": 10592676,
      "componentType": 5125,
      "count": 155847,
      "type": "SCALAR"
    }
  ],
  "asset": {
    "extras": {
      "author": "Carlos.Maciel (https://sketchfab.com/Carlos.Maciel)",
      "license": "CC-BY-4.0 (http://creativecommons.org/licenses/by/4.0/)",
      "source": "https://sketchfab.com/3d-models/lvmh-speedy-25-3e94dc3b466746598e4fd189bc6f5ff2",
      "title": "LVMH Speedy 25"
    },
    "generator": "Sketchfab-14.13.0",
    "version": "2.0"
  },
  "bufferViews": [
    {
      "buffer": 0,
      "byteLength": 11216064,
      "name": "floatBufferViews",
      "target": 34963
    },
    {
      "buffer": 0,
      "byteLength": 4446688,
      "byteOffset": 11216064,
      "byteStride": 8,
      "name": "floatBufferViews",
      "target": 34962
    },
    {
      "buffer": 0,
      "byteLength": 13340064,
      "byteOffset": 15662752,
      "byteStride": 12,
      "name": "floatBufferViews",
      "target": 34962
    }
  ],
  "buffers": [
    {
      "byteLength": 29002816,
      "uri": "scene.bin"
    }
  ],
  "images": [
    {
      "uri": "textures/tecido_baseColor.jpeg"
    },
    {
      "uri": "textures/tecido_metallicRoughness.png"
    }
  ],
  "materials": [
    {
      "doubleSided": true,
      "name": "tecido",
      "pbrMetallicRoughness": {
        "baseColorTexture": {
          "index": 0
        },
        "metallicRoughnessTexture": {
          "index": 1
        },
        "roughnessFactor": 0.5
      }
    }
  ],
  "meshes": [
    {
      "name": "Object_0",
      "primitives": [
        {
          "attributes": {
            "NORMAL": 1,
            "POSITION": 0,
            "TEXCOORD_0": 2
          },
          "indices": 3,
          "material": 0,
          "mode": 4
        }
      ]
    },
    {
      "name": "Object_1",
      "primitives": [
        {
          "attributes": {
            "NORMAL": 5,
            "POSITION": 4,
            "TEXCOORD_0": 6
          },
          "indices": 7,
          "material": 0,
          "mode": 4
        }
      ]
    },
    {
      "name": "Object_2",
      "primitives": [
        {
          "attributes": {
            "NORMAL": 9,
            "POSITION": 8,
            "TEXCOORD_0": 10
          },
          "indices": 11,
          "material": 0,
          "mode": 4
        }
      ]
    },
    {
      "name": "Object_3",
      "primitives": [
        {
          "attributes": {
            "NORMAL": 13,
            "POSITION": 12,
            "TEXCOORD_0": 14
          },
          "indices": 15,
          "material": 0,
          "mode": 4
        }
      ]
    },
    {
      "name": "Object_4",
      "primitives": [
        {
          "attributes": {
            "NORMAL": 17,
            "POSITION": 16,
            "TEXCOORD_0": 18
          },
          "indices": 19,
          "material": 0,
          "mode": 4
        }
      ]
    },
    {
      "name": "Object_5",
      "primitives": [
        {
          "attributes": {
            "NORMAL": 21,
            "POSITION": 20,
            "TEXCOORD_0": 22
          },
          "indices": 23,
          "material": 0,
          "mode": 4
        }
      ]
    },
    {
      "name": "Object_6",
      "primitives": [
        {
          "attributes": {
            "NORMAL": 25,
            "POSITION": 24,
            "TEXCOORD_0": 26
          },
          "indices": 27,
          "material": 0,
          "mode": 4
        }
      ]
    },
    {
      "name": "Object_7",
      "primitives": [
        {
          "attributes": {
            "NORMAL": 29,
            "POSITION": 28,
            "TEXCOORD_0": 30
          },
          "indices": 31,
          "material": 0,
          "mode": 4
        }
      ]
    },
    {
      "name": "Object_8",
      "primitives": [
        {
          "attributes": {
            "NORMAL": 33,
            "POSITION": 32,
            "TEXCOORD_0": 34
          },
          "indices": 35,
          "material": 0,
          "mode": 4
        }
      ]
    }
  ],
  "nodes": [
    {
      "children": [
        1
      ],
      "matrix": [
        1.0,
        0.0,
        0.0,
        0.0,
        0.0,
        2.220446049250313e-16,
        -1.0,
        0.0,
        0.0,
        1.0,
        2.220446049250313e-16,
        0.0,
        0.0,
        0.0,
        0.0,
        1.0
      ],
      "name": "Sketchfab_model"
    },
    {
      "children": [
        2
      ],
      "name": "root"
    },
    {
      "children": [
        3
      ],
      "matrix": [
        1.0,
        0.0,
        0.0,
        0.0,
        0.0,
        2.220446049250313e-16,
        1.0,
        0.0,
        0.0,
        -1.0,
        2.220446049250313e-16,
        0.0,
        0.0,
        0.0,
        0.0,
        1.0
      ],
      "name": "GLTF_SceneRootNode"
    },
    {
      "children": [
        4,
        5,
        6,
        7,
        8,
        9,
        10,
        11,
        12
      ],
      "matrix": [
        1.0,
        0.0,
        0.0,
        0.0,
        0.0,
        -1.685873969314855e-07,
        0.9999999999999858,
        0.0,
        0.0,
        -0.9999999999999858,
        -1.685873969314855e-07,
        0.0,
        0.0,
        0.0,
        0.0,
        1.0
      ],
      "name": "LV_0"
    },
    {
      "mesh": 0,
      "name": "Object_4"
    },
    {
      "mesh": 1,
      "name": "Object_5"
    },
    {
      "mesh": 2,
      "name": "Object_6"
    },
    {
      "mesh": 3,
      "name": "Object_7"
    },
    {
      "mesh": 4,
      "name": "Object_8"
    },
    {
      "mesh": 5,
      "name": "Object_9"
    },
    {
      "mesh": 6,
      "name": "Object_10"
    },
    {
      "mesh": 7,
      "name": "Object_11"
    },
    {
      "mesh": 8,
      "name": "Object_12"
    }
  ],
  "samplers": [
    {
      "magFilter": 9729,
      "minFilter": 9987,
      "wrapS": 10497,
      "wrapT": 10497
    }
  ],
  "scene": 0,
  "scenes": [
    {
      "name": "Sketchfab_Scene",
      "nodes": [
        0
      ]
    }
  ],
  "textures": [
    {
      "sampler": 0,
      "source": 0
    },
    {
      "sampler": 0,
      "source": 1
    }
  ]
}
