{
  "accessors": [
    {
      "bufferView": 2,
      "componentType": 5126,
      "count": 6512,
      "max": [
        0.6115689873695374,
        0.6113370060920715,
        1.8515499830245972
      ],
      "min": [
        -0.6115689873695374,
        -0.6113370060920715,
        1.086300015449524
      ],
      "type": "VEC3"
    },
    {
      "bufferView": 2,
      "byteOffset": 78144,
      "componentType": 5126,
      "count": 6512,
      "max": [
        1.0,
        1.0,
        1.0
      ],
      "min": [
        -1.0,
        -1.0,
        -1.0
      ],
      "type": "VEC3"
    },
    {
      "bufferView": 1,
      "componentType": 5126,
      "count": 6512,
      "max": [
        6.605420112609863,
        8797.7900390625
      ],
      "min": [
        -113.58799743652344,
        -5.678299903869629
      ],
      "type": "VEC2"
    },
    {
      "bufferView": 0,
      "componentType": 5125,
      "count": 33408,
      "type": "SCALAR"
    },
    {
      "bufferView": 2,
      "byteOffset": 156288,
      "componentType": 5126,
      "count": 3933,
      "max": [
        1.7050000429153442,
        0.7302430272102356,
        2.4605000019073486
      ],
      "min": [
        -1.7050000429153442,
        -0.7302430272102356,
        -2.640000104904175
      ],
      "type": "VEC3"
    },
    {
      "bufferView": 2,
      "byteOffset": 203484,
      "componentType": 5126,
      "count": 3933,
      "max": [
        1.0,
        1.0,
        1.0
      ],
      "min": [
        -1.0,
        -1.0,
        -1.0
      ],
      "type": "VEC3"
    },
    {
      "bufferView": 1,
      "byteOffset": 52096,
      "componentType": 5126,
      "count": 3933,
      "max": [
        1.0019099712371826,
        1.000730037689209
      ],
      "min": [
        0.0,
        -0.0022730000782757998
      ],
      "type": "VEC2"
    },
    {
      "bufferView": 0,
      "byteOffset": 133632,
      "componentType": 5125,
      "count": 21756,
      "type": "SCALAR"
    },
    {
      "bufferView": 2,
      "byteOffset": 250680,
      "componentType": 5126,
      "count": 2304,
      "max": [
        0.5361229777336121,
        0.5413089990615845,
        1.7339260578155518
      ],
      "min": [
        -0.5370309948921204,
        -0.6232240200042725,
        1.4311740398406982
      ],
      "type": "VEC3"
    },
    {
      "bufferView": 2,
      "byteOffset": 278328,
      "componentType": 5126,
      "count": 2304,
      "max": [
        0.999337911605835,
        0.9998842477798462,
        0.999997615814209
      ],
      "min": [
        -0.999323844909668,
        -0.9998797178268433,
        -0.9999986886978149
      ],
      "type": "VEC3"
    },
    {
      "bufferView": 0,
      "byteOffset": 220656,
      "componentType": 5125,
      "count": 13824,
      "type": "SCALAR"
    },
    {
      "bufferView": 2,
      "byteOffset": 305976,
      "componentType": 5126,
      "count": 4785,
      "max": [
        0.11694999784231186,
        -0.6007390022277832,
        1.6675790548324585
      ],
      "min": [
        -0.11694999784231186,
        -0.6623730063438416,
        1.4319339990615845
      ],
      "type": "VEC3"
    },
    {
      "bufferView": 2,
      "byteOffset": 363396,
      "componentType": 5126,
      "count": 4785,
      "max": [
        1.0,
        0.9979692101478577,
        0.9999932050704956
      ],
      "min": [
        -1.0,
        -0.9997602105140686,
        -0.9993917942047119
      ],
      "type": "VEC3"
    },
    {
      "bufferView": 1,
      "byteOffset": 83560,
      "componentType": 5126,
      "count": 4785,
      "max": [
        1.0,
        0.9891440272331238
      ],
      "min": [
        0.0,
        0.0
      ],
      "type": "VEC2"
    },
    {
      "bufferView": 0,
      "byteOffset": 275952,
      "componentType": 5125,
      "count": 27072,
      "type": "SCALAR"
    },
    {
      "bufferView": 2,
      "byteOffset": 420816,
      "componentType": 5126,
      "count": 1121,
      "max": [
        1.6403900384902954,
        0.6962609887123108,
        0.8063009977340698
      ],
      "min": [
        -1.6403900384902954,
        -0.6962609887123108,
        -2.5459001064300537
      ],
      "type": "VEC3"
    },
    {
      "bufferView": 2,
      "byteOffset": 434268,
      "componentType": 5126,
      "count": 1121,
      "max": [
        1.0,
        1.0,
        0.9774223566055298
      ],
      "min": [
        -1.0,
        -1.0,
        -1.0
      ],
      "type": "VEC3"
    },
    {
      "bufferView": 1,
      "byteOffset": 121840,
      "componentType": 5126,
      "count": 1121,
      "max": [
        1.0,
        1.0
      ],
      "min": [
        0.0,
        0.0
      ],
      "type": "VEC2"
    },
    {
      "bufferView": 0,
      "byteOffset": 384240,
      "componentType": 5125,
      "count": 5685,
      "type": "SCALAR"
    },
    {
      "bufferView": 2,
      "byteOffset": 447720,
      "componentType": 5126,
      "count": 1203,
      "max": [
        1.6453200578689575,
        0.7046849727630615,
        1.2527300119400024
      ],
      "min": [
        -1.6453200578689575,
        -0.7046849727630615,
        -2.5543100833892822
      ],
      "type": "VEC3"
    },
    {
      "bufferView": 2,
      "byteOffset": 462156,
      "componentType": 5126,
      "count": 1203,
      "max": [
        1.0,
        1.0,
        1.0
      ],
      "min": [
        -1.0,
        -1.0,
        -1.0
      ],
      "type": "VEC3"
    },
    {
      "bufferView": 1,
      "byteOffset": 130808,
      "componentType": 5126,
      "count": 1203,
      "max": [
        1.0,
        1.0
      ],
      "min": [
        0.0,
        0.0
      ],
      "type": "VEC2"
    },
    {
      "bufferView": 0,
      "byteOffset": 406980,
      "componentType": 5125,
      "count": 6792,
      "type": "SCALAR"
    }
  ],
  "asset": {
    "extras": {
      "author": "Pedro França (https://sketchfab.com/pedrofbfranca)",
      "license": "CC-BY-4.0 (http://creativecommons.org/licenses/by/4.0/)",
      "source": "https://sketchfab.com/3d-models/05-parfum-c6de4b728fb74cddaa5ca1e156e45c17",
      "title": "05 Parfum"
    },
    "generator": "Sketchfab-12.64.0",
    "version": "2.0"
  },
  "bufferViews": [
    {
      "buffer": 0,
      "byteLength": 434148,
      "name": "floatBufferViews",
      "target": 34963
    },
    {
      "buffer": 0,
      "byteLength": 140432,
      "byteOffset": 434148,
      "byteStride": 8,
      "name": "floatBufferViews",
      "target": 34962
    },
    {
      "buffer": 0,
      "byteLength": 476592,
      "byteOffset": 574580,
      "byteStride": 12,
      "name": "floatBufferViews",
      "target": 34962
    }
  ],
  "buffers": [
    {
      "byteLength": 1051172,
      "uri": "scene.bin"
    }
  ],
  "extensionsUsed": [
    "KHR_materials_clearcoat",
    "KHR_materials_transmission"
  ],
  "materials": [
    {
      "doubleSided": true,
      "extensions": {
        "KHR_materials_clearcoat": {
          "clearcoatFactor": 1.0,
          "clearcoatRoughnessFactor": 0.1846417683
        }
      },
      "name": "Burnished_032Aluminum_046lxp",
      "pbrMetallicRoughness": {
        "baseColorFactor": [
          0.9117889721,
          0.9117889721,
          0.9117889721,
          1.0
        ],
        "roughnessFactor": 0.2822027439
      }
    },
    {
      "alphaMode": "BLEND",
      "doubleSided": true,
      "extensions": {
        "KHR_materials_clearcoat": {
          "clearcoatFactor": 1.0,
          "clearcoatRoughnessFactor": 0.0
        },
        "KHR_materials_transmission": {
          "transmissionFactor": 1.0
        }
      },
      "name": "Default",
      "pbrMetallicRoughness": {
        "baseColorFactor": [
          0.0,
          0.0,
          0.0,
          0.25
        ],
        "metallicFactor": 0.0,
        "roughnessFactor": 0.0
      }
    },
    {
      "doubleSided": true,
      "name": "None",
      "pbrMetallicRoughness": {
        "baseColorFactor": [
          0.0027398011,
          0.0027398011,
          0.0027398011,
          1.0
        ],
        "metallicFactor": 0.0,
        "roughnessFactor": 0.6
      }
    },
    {
      "doubleSided": true,
      "extensions": {
        "KHR_materials_clearcoat": {
          "clearcoatFactor": 1.0,
          "clearcoatRoughnessFactor": 0.3919588415
        }
      },
      "name": "borracha",
      "pbrMetallicRoughness": {
        "baseColorFactor": [
          0.0117506375,
          0.0117506375,
          0.0117506375,
          1.0
        ],
        "metallicFactor": 0.0,
        "roughnessFactor": 0.37633384150000004
      }
    },
    {
      "alphaMode": "BLEND",
      "doubleSided": true,
      "extensions": {
        "KHR_materials_transmission": {
          "transmissionFactor": 0.10804115849999996
        }
      },
      "name": "liquido",
      "pbrMetallicRoughness": {
        "baseColorFactor": [
          0.0,
          0.0,
          0.0,
          0.8919588415
        ],
        "metallicFactor": 0.0,
        "roughnessFactor": 0.6
      }
    },
    {
      "extensions": {
        "KHR_materials_clearcoat": {
          "clearcoatFactor": 1.0,
          "clearcoatRoughnessFactor": 0.04
        },
        "KHR_materials_transmission": {
          "transmissionFactor": 0.0
        }
      },
      "name": "vidro_032pedro",
      "pbrMetallicRoughness": {
        "baseColorFactor": [
          1.0,
          0.750262928,
          0.0875646214,
          1.0
        ],
        "metallicFactor": 0.5565929878,
        "roughnessFactor": 0.0
      }
    }
  ],
  "meshes": [
    {
      "name": "Object_0",
      "primitives": [
        {
          "attributes": {
            "NORMAL": 1,
            "POSITION": 0,
            "TEXCOORD_0": 2
          },
          "indices": 3,
          "material": 0,
          "mode": 4
        }
      ]
    },
    {
      "name": "Object_1",
      "primitives": [
        {
          "attributes": {
            "NORMAL": 5,
            "POSITION": 4,
            "TEXCOORD_0": 6
          },
          "indices": 7,
          "material": 1,
          "mode": 4
        }
      ]
    },
    {
      "name": "Object_2",
      "primitives": [
        {
          "attributes": {
            "NORMAL": 9,
            "POSITION": 8
          },
          "indices": 10,
          "material": 2,
          "mode": 4
        }
      ]
    },
    {
      "name": "Object_3",
      "primitives": [
        {
          "attributes": {
            "NORMAL": 12,
            "POSITION": 11,
            "TEXCOORD_0": 13
          },
          "indices": 14,
          "material": 3,
          "mode": 4
        }
      ]
    },
    {
      "name": "Object_4",
      "primitives": [
        {
          "attributes": {
            "NORMAL": 16,
            "POSITION": 15,
            "TEXCOORD_0": 17
          },
          "indices": 18,
          "material": 4,
          "mode": 4
        }
      ]
    },
    {
      "name": "Object_5",
      "primitives": [
        {
          "attributes": {
            "NORMAL": 20,
            "POSITION": 19,
            "TEXCOORD_0": 21
          },
          "indices": 22,
          "material": 5,
          "mode": 4
        }
      ]
    }
  ],
  "nodes": [
    {
      "children": [
        1
      ],
      "matrix": [
        1.0,
        0.0,
        0.0,
        0.0,
        0.0,
        2.220446049250313e-16,
        -1.0,
        0.0,
        0.0,
        1.0,
        2.220446049250313e-16,
        0.0,
        0.0,
        0.0,
        0.0,
        1.0
      ],
      "name": "Sketchfab_model"
    },
    {
      "children": [
        2,
        3,
        4,
        5,
        6,
        7
      ],
      "name": "05 SketchFab.obj.cleaner.materialmerger.gles"
    },
    {
      "mesh": 0,
      "name": "Object_2"
    },
    {
      "mesh": 1,
      "name": "Object_3"
    },
    {
      "mesh": 2,
      "name": "Object_4"
    },
    {
      "mesh": 3,
      "name": "Object_5"
    },
    {
      "mesh": 4,
      "name": "Object_6"
    },
    {
      "mesh": 5,
      "name": "Object_7"
    }
  ],
  "scene": 0,
  "scenes": [
    {
      "name": "Sketchfab_Scene",
      "nodes": [
        0
      ]
    }
  ]
}
