{
  "accessors": [
    {
      "bufferView": 2,
      "componentType": 5126,
      "count": 17476,
      "max": [
        0.5254929661750793,
        0.009999999776482582,
        0.40659868717193604
      ],
      "min": [
        7.764319889247417e-07,
        -0.009999999776482582,
        0.14673233032226563
      ],
      "type": "VEC3"
    },
    {
      "bufferView": 2,
      "byteOffset": 209712,
      "componentType": 5126,
      "count": 17476,
      "max": [
        1.0,
        1.0,
        0.9999995231628418
      ],
      "min": [
        -1.0,
        -1.0,
        -0.9999993443489075
      ],
      "type": "VEC3"
    },
    {
      "bufferView": 1,
      "componentType": 5126,
      "count": 17476,
      "max": [
        1.0,
        1.0
      ],
      "min": [
        0.0,
        0.0
      ],
      "type": "VEC2"
    },
    {
      "bufferView": 0,
      "componentType": 5125,
      "count": 32442,
      "type": "SCALAR"
    },
    {
      "bufferView": 2,
      "byteOffset": 419424,
      "componentType": 5126,
      "count": 4440,
      "max": [
        0.36886078119277954,
        0.009999999776482582,
        0.23502033948898315
      ],
      "min": [
        0.17978981137275696,
        -0.009999999776482582,
        6.304631824605167e-06
      ],
      "type": "VEC3"
    },
    {
      "bufferView": 2,
      "byteOffset": 472704,
      "componentType": 5126,
      "count": 4440,
      "max": [
        0.9998984932899475,
        1.0,
        0.9999962449073792
      ],
      "min": [
        -0.9999805688858032,
        -1.0,
        -0.9998791813850403
      ],
      "type": "VEC3"
    },
    {
      "bufferView": 1,
      "byteOffset": 139808,
      "componentType": 5126,
      "count": 4440,
      "max": [
        1.0,
        1.0
      ],
      "min": [
        0.0,
        0.0
      ],
      "type": "VEC2"
    },
    {
      "bufferView": 0,
      "byteOffset": 129768,
      "componentType": 5125,
      "count": 8928,
      "type": "SCALAR"
    }
  ],
  "asset": {
    "extras": {
      "author": "vmmaniac (https://sketchfab.com/vmmaniac)",
      "license": "CC-BY-4.0 (http://creativecommons.org/licenses/by/4.0/)",
      "source": "https://sketchfab.com/3d-models/barbie-logo-3d-d97d67b835cb4f7192a295e840431e44",
      "title": "Barbie logo 3d"
    },
    "generator": "Sketchfab-15.30.0",
    "version": "2.0"
  },
  "bufferViews": [
    {
      "buffer": 0,
      "byteLength": 165480,
      "name": "floatBufferViews",
      "target": 34963
    },
    {
      "buffer": 0,
      "byteLength": 175328,
      "byteOffset": 165480,
      "byteStride": 8,
      "name": "floatBufferViews",
      "target": 34962
    },
    {
      "buffer": 0,
      "byteLength": 525984,
      "byteOffset": 340808,
      "byteStride": 12,
      "name": "floatBufferViews",
      "target": 34962
    }
  ],
  "buffers": [
    {
      "byteLength": 866792,
      "uri": "scene.bin"
    }
  ],
  "materials": [
    {
      "doubleSided": true,
      "name": "SVGMat.001",
      "pbrMetallicRoughness": {
        "baseColorFactor": [
          0.658375,
          0.0307134,
          0.287441,
          1.0
        ],
        "metallicFactor": 0.0,
        "roughnessFactor": 0.4
      }
    },
    {
      "doubleSided": true,
      "name": "SVGMat.002",
      "pbrMetallicRoughness": {
        "baseColorFactor": [
          0.658375,
          0.0307134,
          0.287441,
          1.0
        ],
        "metallicFactor": 0.0,
        "roughnessFactor": 0.4
      }
    }
  ],
  "meshes": [
    {
      "name": "Object_0",
      "primitives": [
        {
          "attributes": {
            "NORMAL": 1,
            "POSITION": 0,
            "TEXCOORD_0": 2
          },
          "indices": 3,
          "material": 0,
          "mode": 4
        }
      ]
    },
    {
      "name": "Object_1",
      "primitives": [
        {
          "attributes": {
            "NORMAL": 5,
            "POSITION": 4,
            "TEXCOORD_0": 6
          },
          "indices": 7,
          "material": 1,
          "mode": 4
        }
      ]
    }
  ],
  "nodes": [
    {
      "children": [
        1
      ],
      "matrix": [
        0.91753089427948,
        -0.39766451716423035,
        -8.829926060643486e-17,
        0.0,
        0.0,
        2.220446049250313e-16,
        -1.0,
        0.0,
        0.39766451716423035,
        0.91753089427948,
        2.037327849267978e-16,
        0.0,
        0.0,
        0.0,
        0.0,
        1.0
      ],
      "name": "Sketchfab_model"
    },
    {
      "children": [
        2
      ],
      "name": "root"
    },
    {
      "children": [
        3,
        5
      ],
      "matrix": [
        1.0,
        0.0,
        0.0,
        0.0,
        0.0,
        2.220446049250313e-16,
        1.0,
        0.0,
        0.0,
        -1.0,
        2.220446049250313e-16,
        0.0,
        0.0,
        0.0,
        0.0,
        1.0
      ],
      "name": "GLTF_SceneRootNode"
    },
    {
      "children": [
        4
      ],
      "name": "Curve_0"
    },
    {
      "mesh": 0,
      "name": "Object_4"
    },
    {
      "children": [
        6
      ],
      "name": "Curve.001_1"
    },
    {
      "mesh": 1,
      "name": "Object_6"
    }
  ],
  "scene": 0,
  "scenes": [
    {
      "name": "Sketchfab_Scene",
      "nodes": [
        0
      ]
    }
  ]
}
